Rot-ProtoRoman102R.ufo
<glyph name="ampersand" format="1">
  <advance width="545"/>
  <unicode hex="0026"/>
  <outline>
    <contour>
      <point x="521" y="115" type="curve"/>
      <point x="535" y="98" type="line"/>
      <point x="462" y="45"/>
      <point x="368" y="-10"/>
      <point x="276" y="-10" type="curve"/>
      <point x="140" y="-10"/>
      <point x="20" y="43"/>
      <point x="20" y="180" type="curve"/>
      <point x="20" y="307"/>
      <point x="129" y="392"/>
      <point x="212" y="392" type="curve"/>
      <point x="274" y="392"/>
      <point x="297" y="344"/>
      <point x="297" y="319" type="curve"/>
      <point x="297" y="226"/>
      <point x="191" y="174"/>
      <point x="163" y="171" type="curve"/>
      <point x="148" y="195" type="line"/>
      <point x="216" y="225"/>
      <point x="228" y="256"/>
      <point x="228" y="294" type="curve"/>
      <point x="228" y="311"/>
      <point x="221" y="329"/>
      <point x="200" y="329" type="curve"/>
      <point x="160" y="329"/>
      <point x="110" y="278"/>
      <point x="110" y="194" type="curve"/>
      <point x="110" y="103"/>
      <point x="163" y="33"/>
      <point x="274" y="33" type="curve"/>
      <point x="372" y="33"/>
      <point x="451" y="67"/>
    </contour>
    <contour>
      <point x="297" y="319" type="curve"/>
      <point x="228" y="359" type="line"/>
      <point x="228" y="404"/>
      <point x="229" y="435"/>
      <point x="225" y="473" type="curve"/>
      <point x="239" y="489" type="line"/>
      <point x="262" y="475"/>
      <point x="338" y="457"/>
      <point x="372" y="452" type="curve"/>
      <point x="372" y="378"/>
      <point x="391" y="349"/>
      <point x="422" y="320" type="curve"/>
      <point x="441" y="302"/>
      <point x="473" y="298"/>
      <point x="506" y="295" type="curve"/>
      <point x="506" y="278" type="line"/>
      <point x="479" y="270"/>
      <point x="449" y="264"/>
      <point x="422" y="264" type="curve"/>
      <point x="378" y="264"/>
      <point x="354" y="273"/>
      <point x="338" y="295" type="curve"/>
      <point x="338" y="321"/>
      <point x="318" y="418"/>
      <point x="308" y="425" type="curve"/>
      <point x="295" y="401"/>
      <point x="297" y="347"/>
    </contour>
  </outline>
</glyph>
<glyph name="period" format="1">
  <advance width="135"/>
  <unicode hex="002E"/>
  <outline>
    <contour>
      <point x="14" y="232" type="line"/>
      <point x="68" y="178" type="line"/>
      <point x="121" y="232" type="line"/>
      <point x="68" y="285" type="line"/>
    </contour>
  </outline>
</glyph>
<glyph name="A" format="1">
  <advance width="815"/>
  <unicode hex="0041"/>
  <outline>
    <contour>
      <point x="238" y="287" type="line"/>
      <point x="540" y="287" type="line"/>
      <point x="512" y="359" type="line"/>
      <point x="266" y="359" type="line"/>
    </contour>
    <contour>
      <point x="407" y="671" type="curve"/>
      <point x="382" y="672" type="line"/>
      <point x="465" y="477"/>
      <point x="534" y="279"/>
      <point x="579" y="157" type="curve"/>
      <point x="615" y="59"/>
      <point x="615" y="57"/>
      <point x="560" y="25" type="curve"/>
      <point x="560" y="-3" type="line"/>
      <point x="610" y="0"/>
      <point x="736" y="1"/>
      <point x="781" y="-3" type="curve"/>
      <point x="781" y="35" type="line"/>
      <point x="745" y="42"/>
      <point x="742" y="40"/>
      <point x="726" y="75" type="curve"/>
      <point x="618" y="311"/>
      <point x="481" y="622"/>
      <point x="455" y="700" type="curve"/>
      <point x="368" y="700" type="line"/>
      <point x="336" y="611"/>
      <point x="190" y="314"/>
      <point x="86" y="116" type="curve"/>
      <point x="53" y="53"/>
      <point x="50" y="49"/>
      <point x="5" y="15" type="curve"/>
      <point x="5" y="-15" type="line"/>
      <point x="55" y="-6"/>
      <point x="163" y="1"/>
      <point x="194" y="-3" type="curve"/>
      <point x="194" y="32" type="line"/>
      <point x="152" y="40"/>
      <point x="150" y="44"/>
      <point x="156" y="61" type="curve"/>
      <point x="229" y="268"/>
      <point x="310" y="467"/>
    </contour>
  </outline>
</glyph>
<glyph name="B" format="1">
  <advance width="621"/>
  <unicode hex="0042"/>
  <outline>
    <contour>
      <point x="356" y="384" type="curve"/>
      <point x="400" y="412"/>
      <point x="435" y="429"/>
      <point x="490" y="446" type="curve"/>
      <point x="524" y="472"/>
      <point x="537" y="513"/>
      <point x="537" y="553" type="curve"/>
      <point x="537" y="653"/>
      <point x="461" y="703"/>
      <point x="368" y="703" type="curve"/>
      <point x="298" y="703"/>
      <point x="218" y="700"/>
      <point x="174" y="700" type="curve"/>
      <point x="133" y="700"/>
      <point x="86" y="702"/>
      <point x="46" y="703" type="curve"/>
      <point x="46" y="668" type="line"/>
      <point x="120" y="653"/>
      <point x="125" y="660"/>
      <point x="124" y="607" type="curve"/>
      <point x="117" y="98" type="line" smooth="yes"/>
      <point x="116" y="42"/>
      <point x="116" y="42"/>
      <point x="40" y="32" type="curve"/>
      <point x="41" y="-3" type="line"/>
      <point x="83" y="-1"/>
      <point x="113" y="0"/>
      <point x="170" y="0" type="curve"/>
      <point x="211" y="0"/>
      <point x="323" y="-3"/>
      <point x="388" y="-3" type="curve"/>
      <point x="487" y="-3"/>
      <point x="583" y="53"/>
      <point x="583" y="183" type="curve"/>
      <point x="583" y="335"/>
      <point x="460" y="375"/>
    </contour>
    <contour>
      <point x="439" y="543" type="curve"/>
      <point x="439" y="446"/>
      <point x="352" y="395"/>
      <point x="215" y="395" type="curve"/>
      <point x="215" y="661" type="line"/>
      <point x="342" y="678"/>
      <point x="439" y="651"/>
    </contour>
    <contour>
      <point x="328" y="32" type="curve"/>
      <point x="252" y="32"/>
      <point x="215" y="55"/>
      <point x="215" y="134" type="curve"/>
      <point x="215" y="348" type="line"/>
      <point x="340" y="355"/>
      <point x="483" y="324"/>
      <point x="483" y="183" type="curve"/>
      <point x="483" y="91"/>
      <point x="429" y="32"/>
    </contour>
  </outline>
</glyph>
<glyph name="C" format="1">
  <advance width="713"/>
  <unicode hex="0043"/>
  <outline>
    <contour>
      <point x="639" y="131" type="line"/>
      <point x="627" y="132" type="line"/>
      <point x="605" y="81"/>
      <point x="508" y="30"/>
      <point x="417" y="30" type="curve"/>
      <point x="247" y="30"/>
      <point x="144" y="191"/>
      <point x="144" y="354" type="curve"/>
      <point x="144" y="511"/>
      <point x="245" y="669"/>
      <point x="414" y="669" type="curve"/>
      <point x="497" y="669"/>
      <point x="581" y="643"/>
      <point x="617" y="606" type="curve"/>
      <point x="621" y="606" type="line"/>
      <point x="664" y="701" type="line"/>
      <point x="635" y="712" type="line"/>
      <point x="602" y="675" type="line"/>
      <point x="556" y="691"/>
      <point x="483" y="710"/>
      <point x="410" y="710" type="curve"/>
      <point x="201" y="710"/>
      <point x="40" y="577"/>
      <point x="40" y="344" type="curve"/>
      <point x="40" y="113"/>
      <point x="224" y="-10"/>
      <point x="415" y="-10" type="curve"/>
      <point x="511" y="-10"/>
      <point x="598" y="19"/>
      <point x="669" y="70" type="curve"/>
    </contour>
  </outline>
</glyph>
<glyph name="M" format="1">
  <advance width="1057"/>
  <unicode hex="004D"/>
  <outline>
    <contour>
      <point x="694" y="546" type="curve"/>
      <point x="796" y="124" type="line" smooth="yes"/>
      <point x="813" y="54"/>
      <point x="806" y="42"/>
      <point x="766" y="32" type="curve"/>
      <point x="766" y="-3" type="line"/>
      <point x="845" y="1"/>
      <point x="966" y="0"/>
      <point x="1022" y="-3" type="curve"/>
      <point x="1022" y="32" type="line"/>
      <point x="911" y="37"/>
      <point x="918" y="48"/>
      <point x="897" y="136" type="curve"/>
      <point x="773" y="666" type="line"/>
      <point x="883" y="668" type="line"/>
      <point x="883" y="703" type="line"/>
      <point x="822" y="699"/>
      <point x="655" y="700"/>
      <point x="569" y="703" type="curve"/>
      <point x="569" y="668" type="line"/>
      <point x="656" y="662"/>
      <point x="670" y="644"/>
    </contour>
    <contour>
      <point x="183" y="161" type="curve"/>
      <point x="289" y="579" type="line"/>
      <point x="255" y="608" type="line"/>
      <point x="104" y="136" type="line" smooth="yes"/>
      <point x="82" y="66"/>
      <point x="56" y="40"/>
      <point x="25" y="32" type="curve"/>
      <point x="25" y="-3" type="line"/>
      <point x="91" y="1"/>
      <point x="211" y="0"/>
      <point x="283" y="-3" type="curve"/>
      <point x="283" y="32" type="line"/>
      <point x="178" y="35"/>
      <point x="156" y="55"/>
    </contour>
    <contour>
      <point x="513" y="-6" type="line"/>
      <point x="712" y="527" type="line"/>
      <point x="692" y="598" type="line"/>
      <point x="504" y="132" type="line"/>
      <point x="541" y="140" type="line"/>
      <point x="308" y="703" type="line"/>
      <point x="249" y="700"/>
      <point x="133" y="699"/>
      <point x="94" y="703" type="curve"/>
      <point x="94" y="668" type="line"/>
      <point x="207" y="655"/>
      <point x="220" y="646"/>
      <point x="243" y="587" type="curve"/>
      <point x="292" y="463"/>
      <point x="433" y="182"/>
      <point x="481" y="-3" type="curve"/>
    </contour>
  </outline>
</glyph>
<glyph name="P" format="1">
  <advance width="657"/>
  <unicode hex="0050"/>
  <outline>
    <contour>
      <point x="363" y="703" type="curve"/>
      <point x="223" y="703"/>
      <point x="123" y="697"/>
      <point x="40" y="703" type="curve"/>
      <point x="40" y="668" type="line"/>
      <point x="123" y="662"/>
      <point x="120" y="663"/>
      <point x="120" y="566" type="curve"/>
      <point x="119" y="101" type="line" smooth="yes"/>
      <point x="119" y="36"/>
      <point x="116" y="37"/>
      <point x="40" y="31" type="curve"/>
      <point x="40" y="-3" type="line"/>
      <point x="135" y="1"/>
      <point x="282" y="1"/>
      <point x="380" y="-3" type="curve"/>
      <point x="380" y="37" type="line"/>
      <point x="222" y="49" type="line"/>
      <point x="217" y="172"/>
      <point x="214" y="297"/>
      <point x="214" y="394" type="curve"/>
      <point x="214" y="486"/>
      <point x="215" y="583"/>
      <point x="216" y="662" type="curve"/>
      <point x="384" y="683"/>
      <point x="517" y="637"/>
      <point x="517" y="494" type="curve"/>
      <point x="517" y="370"/>
      <point x="434" y="313"/>
      <point x="264" y="319" type="curve"/>
      <point x="257" y="287" type="line"/>
      <point x="466" y="269"/>
      <point x="622" y="328"/>
      <point x="622" y="489" type="curve"/>
      <point x="622" y="629"/>
      <point x="525" y="703"/>
    </contour>
  </outline>
</glyph>
<glyph name="Q" format="1">
  <advance width="1009"/>
  <unicode hex="0051"/>
  <outline>
    <contour>
      <point x="1040" y="-80" type="line"/>
      <point x="1024" y="15" type="line"/>
      <point x="848" y="23"/>
      <point x="785" y="-113"/>
      <point x="607" y="-113" type="curve"/>
      <point x="509" y="-113"/>
      <point x="453" y="-40"/>
      <point x="460" y="20" type="curve"/>
      <point x="335" y="12" type="line"/>
      <point x="365" y="-128"/>
      <point x="471" y="-200"/>
      <point x="580" y="-200" type="curve"/>
      <point x="748" y="-200"/>
      <point x="867" y="-32"/>
      <point x="960" y="-32" type="curve"/>
      <point x="997" y="-32"/>
      <point x="1003" y="-63"/>
      <point x="1012" y="-86" type="curve"/>
    </contour>
    <contour>
      <point x="676" y="326" type="curve"/>
      <point x="676" y="167"/>
      <point x="565" y="29"/>
      <point x="397" y="29" type="curve"/>
      <point x="199" y="29"/>
      <point x="107" y="188"/>
      <point x="107" y="350" type="curve"/>
      <point x="107" y="525"/>
      <point x="208" y="672"/>
      <point x="383" y="672" type="curve"/>
      <point x="592" y="672"/>
      <point x="676" y="497"/>
    </contour>
    <contour>
      <point x="393" y="-10" type="curve"/>
      <point x="607" y="-10"/>
      <point x="794" y="133"/>
      <point x="794" y="351" type="curve"/>
      <point x="794" y="567"/>
      <point x="597" y="710"/>
      <point x="393" y="710" type="curve"/>
      <point x="256" y="710"/>
      <point x="116" y="649"/>
      <point x="40" y="540" type="curve"/>
      <point x="43" y="158" type="line"/>
      <point x="118" y="52"/>
      <point x="252" y="-10"/>
    </contour>
  </outline>
</glyph>
<glyph name="U" format="1">
  <advance width="878"/>
  <unicode hex="0055"/>
  <outline>
    <contour>
      <point x="40" y="704" type="curve"/>
      <point x="40" y="670" type="line"/>
      <point x="117" y="658"/>
      <point x="117" y="661"/>
      <point x="117" y="627" type="curve"/>
      <point x="117" y="254" type="line" smooth="yes"/>
      <point x="117" y="101"/>
      <point x="199" y="-10"/>
      <point x="449" y="-10" type="curve"/>
      <point x="630" y="-10"/>
      <point x="745" y="112"/>
      <point x="745" y="263" type="curve"/>
      <point x="745" y="622" type="line"/>
      <point x="745" y="623" type="line" smooth="yes"/>
      <point x="745" y="663"/>
      <point x="746" y="662"/>
      <point x="819" y="667" type="curve"/>
      <point x="819" y="703" type="line"/>
      <point x="740" y="700"/>
      <point x="622" y="700"/>
      <point x="582" y="703" type="curve"/>
      <point x="582" y="666" type="line"/>
      <point x="688" y="659"/>
      <point x="688" y="659"/>
      <point x="688" y="618" type="curve"/>
      <point x="688" y="269" type="line" smooth="yes"/>
      <point x="688" y="108"/>
      <point x="574" y="36"/>
      <point x="454" y="36" type="curve"/>
      <point x="275" y="36"/>
      <point x="213" y="128"/>
      <point x="213" y="276" type="curve"/>
      <point x="213" y="627" type="line" smooth="yes"/>
      <point x="213" y="658"/>
      <point x="254" y="658"/>
      <point x="335" y="669" type="curve"/>
      <point x="335" y="703" type="line"/>
      <point x="271" y="701"/>
      <point x="120" y="701"/>
    </contour>
  </outline>
</glyph>
<glyph name="Z" format="1">
  <advance width="726"/>
  <unicode hex="005A"/>
  <outline>
    <contour>
      <point x="663" y="224" type="curve"/>
      <point x="628" y="225" type="line"/>
      <point x="601" y="98"/>
      <point x="571" y="51"/>
      <point x="415" y="46" type="curve"/>
      <point x="149" y="37" type="line"/>
      <point x="142" y="17" type="line"/>
      <point x="322" y="243"/>
      <point x="619" y="643"/>
      <point x="690" y="678" type="curve"/>
      <point x="677" y="714" type="line"/>
      <point x="664" y="707"/>
      <point x="318" y="703"/>
      <point x="79" y="701" type="curve"/>
      <point x="75" y="626"/>
      <point x="66" y="557"/>
      <point x="60" y="482" type="curve"/>
      <point x="95" y="479" type="line"/>
      <point x="145" y="643"/>
      <point x="206" y="655"/>
      <point x="343" y="658" type="curve"/>
      <point x="597" y="664" type="line"/>
      <point x="561" y="693" type="line"/>
      <point x="16" y="19" type="line"/>
      <point x="22" y="-2" type="line"/>
      <point x="225" y="1"/>
      <point x="450" y="4"/>
      <point x="653" y="-3" type="curve"/>
      <point x="652" y="76"/>
      <point x="654" y="150"/>
    </contour>
  </outline>
</glyph>
<glyph name="a" format="1">
  <advance width="361"/>
  <unicode hex="0061"/>
  <outline>
    <contour>
      <point x="242" y="185" type="curve"/>
      <point x="242" y="218" type="line"/>
      <point x="145" y="208"/>
      <point x="59" y="178"/>
      <point x="19" y="127" type="curve"/>
      <point x="4" y="68"/>
      <point x="34" y="-10"/>
      <point x="94" y="-10" type="curve"/>
      <point x="150" y="-10"/>
      <point x="223" y="54"/>
      <point x="245" y="75" type="curve"/>
      <point x="236" y="106" type="line"/>
      <point x="217" y="83"/>
      <point x="188" y="50"/>
      <point x="148" y="50" type="curve"/>
      <point x="108" y="50"/>
      <point x="89" y="88"/>
      <point x="99" y="128" type="curve"/>
      <point x="119" y="164"/>
      <point x="177" y="193"/>
    </contour>
    <contour>
      <point x="226" y="260" type="curve"/>
      <point x="226" y="99" type="line"/>
      <point x="238" y="-10" type="line"/>
      <point x="281" y="-6"/>
      <point x="309" y="-3"/>
      <point x="356" y="1" type="curve"/>
      <point x="356" y="26" type="line"/>
      <point x="310" y="34"/>
      <point x="304" y="48"/>
      <point x="304" y="98" type="curve"/>
      <point x="304" y="137"/>
      <point x="306" y="199"/>
      <point x="308" y="276" type="curve"/>
      <point x="310" y="336"/>
      <point x="238" y="381"/>
      <point x="174" y="381" type="curve"/>
      <point x="91" y="381"/>
      <point x="29" y="328"/>
      <point x="15" y="278" type="curve"/>
      <point x="18" y="265" type="line"/>
      <point x="127" y="289" type="line"/>
      <point x="126" y="301" type="line"/>
      <point x="107" y="306"/>
      <point x="102" y="310"/>
      <point x="102" y="321" type="curve"/>
      <point x="102" y="339"/>
      <point x="121" y="351"/>
      <point x="149" y="351" type="curve"/>
      <point x="203" y="351"/>
      <point x="226" y="320"/>
    </contour>
  </outline>
</glyph>
<glyph name="b" format="1">
  <advance width="465"/>
  <unicode hex="0062"/>
  <outline>
    <contour>
      <point x="110" y="316" type="curve"/>
      <point x="116" y="275" type="line"/>
      <point x="136" y="312"/>
      <point x="197" y="337"/>
      <point x="235" y="337" type="curve"/>
      <point x="305" y="337"/>
      <point x="374" y="277"/>
      <point x="374" y="187" type="curve"/>
      <point x="374" y="103"/>
      <point x="327" y="58"/>
      <point x="263" y="28" type="curve"/>
      <point x="185" y="28"/>
      <point x="132" y="69"/>
      <point x="122" y="110" type="curve"/>
      <point x="122" y="394" type="line" smooth="yes"/>
      <point x="122" y="555"/>
      <point x="126" y="612"/>
      <point x="132" y="673" type="curve"/>
      <point x="119" y="679" type="line"/>
      <point x="86" y="643"/>
      <point x="60" y="626"/>
      <point x="30" y="597" type="curve"/>
      <point x="43" y="464"/>
      <point x="46" y="252"/>
      <point x="42" y="76" type="curve"/>
      <point x="77" y="20"/>
      <point x="185" y="-10"/>
      <point x="219" y="-10" type="curve"/>
      <point x="337" y="12"/>
      <point x="445" y="88"/>
      <point x="445" y="200" type="curve"/>
      <point x="445" y="320"/>
      <point x="354" y="383"/>
      <point x="254" y="383" type="curve"/>
      <point x="203" y="365"/>
      <point x="163" y="345"/>
    </contour>
  </outline>
</glyph>
<glyph name="c" format="1">
  <advance width="370"/>
  <unicode hex="0063"/>
  <outline>
    <contour>
      <point x="346" y="76" type="curve"/>
      <point x="327" y="91" type="line"/>
      <point x="308" y="58"/>
      <point x="280" y="35"/>
      <point x="224" y="35" type="curve"/>
      <point x="150" y="35"/>
      <point x="95" y="93"/>
      <point x="95" y="189" type="curve"/>
      <point x="95" y="254"/>
      <point x="118" y="295"/>
      <point x="149" y="315" type="curve"/>
      <point x="204" y="309"/>
      <point x="263" y="307"/>
      <point x="321" y="307" type="curve"/>
      <point x="365" y="370" type="line"/>
      <point x="363" y="373" type="line"/>
      <point x="324" y="371"/>
      <point x="224" y="378"/>
      <point x="180" y="378" type="curve"/>
      <point x="156" y="378"/>
      <point x="20" y="309"/>
      <point x="20" y="164" type="curve"/>
      <point x="20" y="54"/>
      <point x="87" y="-10"/>
      <point x="196" y="-10" type="curve"/>
      <point x="277" y="-10"/>
      <point x="330" y="41"/>
    </contour>
  </outline>
</glyph>
<glyph name="d" format="1">
  <advance width="508"/>
  <unicode hex="0064"/>
  <outline>
    <contour>
      <point x="427" y="129" type="curve"/>
      <point x="432" y="460"/>
      <point x="424" y="240"/>
      <point x="434" y="571" type="curve"/>
      <point x="437" y="668"/>
      <point x="439" y="672"/>
      <point x="475" y="673" type="curve"/>
      <point x="475" y="703" type="line"/>
      <point x="422" y="699"/>
      <point x="298" y="699"/>
      <point x="247" y="703" type="curve"/>
      <point x="247" y="674" type="line"/>
      <point x="350" y="672"/>
      <point x="350" y="672"/>
      <point x="350" y="607" type="curve"/>
      <point x="350" y="486"/>
      <point x="347" y="89"/>
      <point x="347" y="74" type="curve"/>
      <point x="357" y="78" type="line"/>
      <point x="343" y="-22" type="line"/>
      <point x="348" y="-27" type="line"/>
      <point x="392" y="-9"/>
      <point x="437" y="8"/>
      <point x="493" y="22" type="curve"/>
      <point x="493" y="40" type="line"/>
      <point x="436" y="53"/>
      <point x="426" y="61"/>
    </contour>
    <contour>
      <point x="362" y="61" type="curve"/>
      <point x="348" y="136" type="line"/>
      <point x="347" y="74"/>
      <point x="287" y="39"/>
      <point x="240" y="39" type="curve"/>
      <point x="148" y="39"/>
      <point x="97" y="106"/>
      <point x="97" y="186" type="curve"/>
      <point x="97" y="286"/>
      <point x="159" y="349"/>
      <point x="239" y="349" type="curve"/>
      <point x="287" y="349"/>
      <point x="335" y="325"/>
      <point x="355" y="251" type="curve"/>
      <point x="395" y="353" type="line"/>
      <point x="326" y="369"/>
      <point x="264" y="381"/>
      <point x="252" y="381" type="curve"/>
      <point x="112" y="381"/>
      <point x="20" y="291"/>
      <point x="20" y="176" type="curve"/>
      <point x="20" y="46"/>
      <point x="111" y="-10"/>
      <point x="236" y="-10" type="curve"/>
      <point x="293" y="21"/>
      <point x="327" y="44"/>
    </contour>
  </outline>
</glyph>
<glyph name="e" format="1">
  <advance width="407"/>
  <unicode hex="0065"/>
  <outline>
    <contour>
      <point x="243" y="45" type="curve"/>
      <point x="162" y="45"/>
      <point x="103" y="110"/>
      <point x="103" y="214" type="curve"/>
      <point x="103" y="257"/>
      <point x="107" y="299"/>
      <point x="133" y="324" type="curve"/>
      <point x="184" y="329"/>
      <point x="253" y="308"/>
      <point x="267" y="266" type="curve"/>
      <point x="299" y="305" type="line"/>
      <point x="84" y="170" type="line"/>
      <point x="93" y="142" type="line"/>
      <point x="365" y="313" type="line"/>
      <point x="365" y="327" type="line"/>
      <point x="322" y="342"/>
      <point x="222" y="381"/>
      <point x="209" y="381" type="curve"/>
      <point x="122" y="361"/>
      <point x="50" y="305"/>
      <point x="35" y="272" type="curve"/>
      <point x="27" y="246"/>
      <point x="20" y="217"/>
      <point x="20" y="179" type="curve"/>
      <point x="20" y="62"/>
      <point x="103" y="-10"/>
      <point x="218" y="-10" type="curve"/>
      <point x="256" y="-10"/>
      <point x="352" y="40"/>
      <point x="397" y="108" type="curve"/>
      <point x="376" y="120" type="line"/>
      <point x="345" y="76"/>
      <point x="302" y="45"/>
    </contour>
  </outline>
</glyph>
<glyph name="h" format="1">
  <advance width="425"/>
  <unicode hex="0068"/>
  <outline>
    <contour>
      <point x="287" y="33" type="curve"/>
      <point x="345" y="87"/>
      <point x="405" y="132"/>
      <point x="405" y="221" type="curve"/>
      <point x="405" y="321"/>
      <point x="332" y="379"/>
      <point x="236" y="379" type="curve"/>
      <point x="176" y="370"/>
      <point x="112" y="328"/>
      <point x="69" y="319" type="curve"/>
      <point x="75" y="290" type="line"/>
      <point x="113" y="309"/>
      <point x="150" y="321"/>
      <point x="202" y="321" type="curve"/>
      <point x="296" y="321"/>
      <point x="350" y="260"/>
      <point x="350" y="190" type="curve"/>
      <point x="350" y="110"/>
      <point x="289" y="68"/>
      <point x="232" y="28" type="curve"/>
      <point x="286" y="-22" type="line"/>
      <point x="306" y="-7" type="line"/>
      <point x="295" y="5"/>
      <point x="294" y="19"/>
    </contour>
    <contour>
      <point x="97" y="77" type="curve"/>
      <point x="97" y="394" type="line" smooth="yes"/>
      <point x="97" y="555"/>
      <point x="102" y="605"/>
      <point x="118" y="666" type="curve"/>
      <point x="103" y="679" type="line"/>
      <point x="55" y="643"/>
      <point x="44" y="626"/>
      <point x="15" y="597" type="curve"/>
      <point x="28" y="464"/>
      <point x="29" y="176"/>
      <point x="25" y="0" type="curve"/>
      <point x="147" y="-1" type="line"/>
      <point x="153" y="24" type="line"/>
      <point x="99" y="24"/>
      <point x="97" y="24"/>
    </contour>
  </outline>
</glyph>
<glyph name="i" format="1">
  <advance width="192"/>
  <unicode hex="0069"/>
  <outline>
    <contour>
      <point x="15" y="349" type="curve"/>
      <point x="17" y="324" type="line"/>
      <point x="58" y="323"/>
      <point x="59" y="323"/>
      <point x="58" y="272" type="curve"/>
      <point x="56" y="96" type="line" smooth="yes"/>
      <point x="55" y="36"/>
      <point x="55" y="35"/>
      <point x="34" y="20" type="curve"/>
      <point x="34" y="0" type="line"/>
      <point x="58" y="2"/>
      <point x="143" y="0"/>
      <point x="177" y="0" type="curve"/>
      <point x="177" y="25" type="line"/>
      <point x="135" y="36"/>
      <point x="136" y="36"/>
      <point x="136" y="97" type="curve"/>
      <point x="136" y="187"/>
      <point x="135" y="268"/>
      <point x="149" y="377" type="curve"/>
      <point x="137" y="391" type="line"/>
      <point x="102" y="373"/>
      <point x="61" y="361"/>
    </contour>
  </outline>
</glyph>
<glyph name="k" format="1">
  <advance width="386"/>
  <unicode hex="006B"/>
  <outline>
    <contour>
      <point x="133" y="144" type="line"/>
      <point x="234" y="200" type="line"/>
      <point x="347" y="299" type="line"/>
      <point x="353" y="314"/>
      <point x="359" y="347"/>
      <point x="358" y="370" type="curve"/>
      <point x="336" y="380"/>
      <point x="232" y="378"/>
      <point x="204" y="373" type="curve"/>
      <point x="132" y="336" type="line"/>
      <point x="132" y="313" type="line"/>
      <point x="195" y="323"/>
      <point x="251" y="317"/>
      <point x="306" y="301" type="curve"/>
      <point x="266" y="252"/>
      <point x="216" y="213"/>
      <point x="133" y="176" type="curve"/>
    </contour>
    <contour>
      <point x="234" y="228" type="curve"/>
      <point x="153" y="179" type="line"/>
      <point x="204" y="148"/>
      <point x="238" y="59"/>
      <point x="276" y="-4" type="curve"/>
      <point x="295" y="7"/>
      <point x="356" y="17"/>
      <point x="378" y="26" type="curve"/>
      <point x="372" y="50" type="line"/>
      <point x="325" y="56"/>
      <point x="273" y="146"/>
    </contour>
    <contour>
      <point x="15" y="582" type="curve"/>
      <point x="15" y="565" type="line"/>
      <point x="63" y="535"/>
      <point x="62" y="531"/>
      <point x="62" y="363" type="curve"/>
      <point x="62" y="243"/>
      <point x="60" y="120"/>
      <point x="57" y="0" type="curve"/>
      <point x="149" y="0" type="line"/>
      <point x="143" y="108"/>
      <point x="142" y="208"/>
      <point x="139" y="316" type="curve"/>
      <point x="139" y="547"/>
      <point x="145" y="608"/>
      <point x="151" y="669" type="curve"/>
      <point x="136" y="678" type="line"/>
      <point x="112" y="651"/>
      <point x="57" y="611"/>
    </contour>
  </outline>
</glyph>
<glyph name="p" format="1">
  <advance width="485"/>
  <unicode hex="0070"/>
  <outline>
    <contour>
      <point x="134" y="-169" type="curve"/>
      <point x="129" y="-67"/>
      <point x="134" y="190"/>
      <point x="137" y="307" type="curve"/>
      <point x="124" y="376" type="line"/>
      <point x="106" y="380" type="line"/>
      <point x="69" y="358"/>
      <point x="53" y="351"/>
      <point x="15" y="331" type="curve"/>
      <point x="15" y="306" type="line"/>
      <point x="52" y="309"/>
      <point x="50" y="279"/>
      <point x="52" y="235" type="curve"/>
      <point x="55" y="172"/>
      <point x="54" y="-14"/>
      <point x="50" y="-144" type="curve"/>
      <point x="47" y="-240"/>
      <point x="50" y="-238"/>
      <point x="22" y="-258" type="curve"/>
      <point x="22" y="-282" type="line"/>
      <point x="65" y="-279"/>
      <point x="121" y="-280"/>
      <point x="167" y="-282" type="curve"/>
      <point x="167" y="-257" type="line"/>
      <point x="134" y="-234"/>
      <point x="137" y="-234"/>
    </contour>
    <contour>
      <point x="125" y="67" type="curve"/>
      <point x="128" y="-1" type="line"/>
      <point x="157" y="16"/>
      <point x="207" y="-4"/>
      <point x="283" y="-14" type="curve"/>
      <point x="321" y="0"/>
      <point x="465" y="49"/>
      <point x="465" y="191" type="curve"/>
      <point x="465" y="307"/>
      <point x="369" y="372"/>
      <point x="261" y="381" type="curve"/>
      <point x="230" y="366"/>
      <point x="172" y="336"/>
      <point x="131" y="312" type="curve"/>
      <point x="126" y="277" type="line"/>
      <point x="157" y="302"/>
      <point x="199" y="320"/>
      <point x="234" y="320" type="curve"/>
      <point x="311" y="320"/>
      <point x="376" y="266"/>
      <point x="376" y="171" type="curve"/>
      <point x="376" y="91"/>
      <point x="326" y="22"/>
      <point x="256" y="22" type="curve"/>
      <point x="224" y="22"/>
      <point x="164" y="29"/>
    </contour>
  </outline>
</glyph>
<glyph name="q" format="1">
  <advance width="494"/>
  <unicode hex="0071"/>
  <outline>
    <contour>
      <point x="359" y="-284" type="curve"/>
      <point x="372" y="-293" type="line"/>
      <point x="464" y="-233" type="line"/>
      <point x="450" y="-121"/>
      <point x="437" y="200"/>
      <point x="463" y="391" type="curve"/>
      <point x="445" y="398" type="line"/>
      <point x="373" y="341" type="line"/>
      <point x="331" y="355"/>
      <point x="273" y="381"/>
      <point x="252" y="381" type="curve"/>
      <point x="122" y="381"/>
      <point x="20" y="291"/>
      <point x="20" y="171" type="curve"/>
      <point x="20" y="54"/>
      <point x="120" y="-10"/>
      <point x="241" y="-10" type="curve"/>
      <point x="295" y="20"/>
      <point x="336" y="38"/>
      <point x="371" y="50" type="curve"/>
      <point x="373" y="-57"/>
      <point x="367" y="-168"/>
    </contour>
    <contour>
      <point x="243" y="31" type="curve"/>
      <point x="144" y="31"/>
      <point x="110" y="116"/>
      <point x="110" y="186" type="curve"/>
      <point x="110" y="276"/>
      <point x="167" y="341"/>
      <point x="245" y="341" type="curve"/>
      <point x="311" y="341"/>
      <point x="367" y="279"/>
      <point x="368" y="226" type="curve"/>
      <point x="369" y="146" type="line" smooth="yes"/>
      <point x="370" y="99"/>
      <point x="309" y="31"/>
    </contour>
  </outline>
</glyph>
<glyph name="w" format="1">
  <advance width="645"/>
  <unicode hex="0077"/>
  <outline>
    <contour>
      <point x="217" y="371" type="curve"/>
      <point x="217" y="346" type="line"/>
      <point x="281" y="328"/>
      <point x="277" y="317"/>
      <point x="257" y="270" type="curve"/>
      <point x="228" y="201"/>
      <point x="188" y="130"/>
      <point x="159" y="76" type="curve"/>
      <point x="198" y="54" type="line"/>
      <point x="159" y="130"/>
      <point x="129" y="195"/>
      <point x="100" y="271" type="curve"/>
      <point x="81" y="321"/>
      <point x="85" y="329"/>
      <point x="144" y="346" type="curve"/>
      <point x="144" y="371" type="line"/>
      <point x="122" y="371"/>
      <point x="23" y="371"/>
      <point x="10" y="371" type="curve"/>
      <point x="10" y="346" type="line"/>
      <point x="44" y="298"/>
      <point x="160" y="44"/>
      <point x="183" y="-10" type="curve"/>
      <point x="202" y="-10" type="line"/>
      <point x="247" y="87"/>
      <point x="358" y="296"/>
      <point x="393" y="346" type="curve"/>
      <point x="393" y="371" type="line"/>
      <point x="364" y="370"/>
      <point x="226" y="370"/>
    </contour>
    <contour>
      <point x="336" y="271" type="curve"/>
      <point x="296" y="253" type="line"/>
      <point x="343" y="159"/>
      <point x="403" y="27"/>
      <point x="419" y="-10" type="curve"/>
      <point x="438" y="-10" type="line"/>
      <point x="483" y="87"/>
      <point x="600" y="296"/>
      <point x="635" y="346" type="curve"/>
      <point x="635" y="371" type="line"/>
      <point x="606" y="370"/>
      <point x="468" y="370"/>
      <point x="459" y="371" type="curve"/>
      <point x="459" y="346" type="line"/>
      <point x="523" y="328"/>
      <point x="519" y="317"/>
      <point x="499" y="270" type="curve"/>
      <point x="470" y="201"/>
      <point x="424" y="130"/>
      <point x="395" y="76" type="curve"/>
      <point x="434" y="54" type="line"/>
      <point x="395" y="130"/>
      <point x="365" y="196"/>
    </contour>
  </outline>
</glyph>
<glyph name="i_macr" format="1">
  <advance width="216"/>
  <unicode hex="012B"/>
  <outline>
    <contour>
      <point x="26" y="552" type="curve"/>
      <point x="15" y="576" type="line"/>
      <point x="81" y="634" type="line"/>
      <point x="113" y="621"/>
      <point x="134" y="603"/>
      <point x="149" y="603" type="curve"/>
      <point x="156" y="603"/>
      <point x="169" y="610"/>
      <point x="179" y="617" type="curve"/>
      <point x="201" y="598" type="line"/>
      <point x="120" y="527" type="line"/>
      <point x="89" y="548"/>
      <point x="71" y="562"/>
      <point x="54" y="562" type="curve"/>
      <point x="41" y="562"/>
      <point x="28" y="552"/>
    </contour>
    <component base="i" xOffset="12"/>
  </outline>
</glyph>
<glyph name="o_macr" format="1">
  <advance width="440"/>
  <unicode hex="014D"/>
  <outline>
    <contour>
      <point x="201" y="381" type="curve"/>
      <point x="127" y="381"/>
      <point x="53" y="343"/>
      <point x="20" y="281" type="curve"/>
      <point x="24" y="67" type="line"/>
      <point x="62" y="17"/>
      <point x="128" y="-10"/>
      <point x="204" y="-10" type="curve"/>
      <point x="311" y="-10"/>
      <point x="420" y="70"/>
      <point x="420" y="191" type="curve"/>
      <point x="420" y="308"/>
      <point x="323" y="381"/>
    </contour>
    <contour>
      <point x="209" y="22" type="curve"/>
      <point x="119" y="22"/>
      <point x="72" y="105"/>
      <point x="72" y="195" type="curve"/>
      <point x="72" y="275"/>
      <point x="106" y="349"/>
      <point x="196" y="349" type="curve"/>
      <point x="286" y="349"/>
      <point x="335" y="266"/>
      <point x="335" y="176" type="curve"/>
      <point x="335" y="96"/>
      <point x="299" y="22"/>
    </contour>
    <component base="macr" xOffset="-9"/>
  </outline>
</glyph>
<glyph name="v_strok" format="1">
  <advance width="619"/>
  <unicode hex="A75F"/>
  <outline>
    <contour>
      <point x="267" y="230" type="curve"/>
      <point x="234" y="250" type="line"/>
      <point x="292" y="291"/>
      <point x="399" y="379"/>
      <point x="430" y="379" type="curve"/>
      <point x="535" y="379"/>
      <point x="614" y="292"/>
      <point x="614" y="222" type="curve"/>
      <point x="614" y="124"/>
      <point x="538" y="62"/>
      <point x="394" y="-20" type="curve"/>
      <point x="383" y="-17" type="line"/>
      <point x="332" y="82"/>
      <point x="192" y="255"/>
      <point x="32" y="376" type="curve"/>
      <point x="37" y="524" type="line"/>
      <point x="47" y="527" type="line"/>
      <point x="94" y="447"/>
      <point x="341" y="199"/>
      <point x="445" y="47" type="curve"/>
      <point x="510" y="90"/>
      <point x="527" y="139"/>
      <point x="527" y="192" type="curve"/>
      <point x="527" y="258"/>
      <point x="487" y="314"/>
      <point x="416" y="314" type="curve"/>
      <point x="359" y="314"/>
      <point x="305" y="280"/>
    </contour>
    <contour>
      <point x="24" y="59" type="curve"/>
      <point x="5" y="72" type="line"/>
      <point x="126" y="198"/>
      <point x="210" y="390"/>
      <point x="241" y="547" type="curve"/>
      <point x="249" y="587"/>
      <point x="216" y="601"/>
      <point x="188" y="607" type="curve"/>
      <point x="187" y="632" type="line"/>
      <point x="252" y="630"/>
      <point x="324" y="630"/>
      <point x="390" y="632" type="curve"/>
      <point x="390" y="607" type="line"/>
      <point x="336" y="597"/>
      <point x="306" y="597"/>
      <point x="297" y="556" type="curve"/>
      <point x="262" y="397"/>
      <point x="170" y="190"/>
    </contour>
  </outline>
</glyph>
<glyph name="etfin" format="1">
  <advance width="337"/>
  <unicode hex="A76B"/>
  <outline>
    <contour>
      <point x="25" y="88" type="curve"/>
      <point x="35" y="72" type="line"/>
      <point x="145" y="121"/>
      <point x="229" y="79"/>
      <point x="229" y="-19" type="curve"/>
      <point x="229" y="-102"/>
      <point x="143" y="-163"/>
      <point x="99" y="-199" type="curve"/>
      <point x="77" y="-217"/>
      <point x="49" y="-235"/>
      <point x="35" y="-252" type="curve"/>
      <point x="35" y="-277"/>
      <point x="52" y="-290"/>
      <point x="70" y="-290" type="curve"/>
      <point x="82" y="-290"/>
      <point x="101" y="-277"/>
      <point x="102" y="-258" type="curve"/>
      <point x="68" y="-244"/>
      <point x="91" y="-234"/>
      <point x="115" y="-217" type="curve"/>
      <point x="171" y="-178"/>
      <point x="300" y="-109"/>
      <point x="300" y="-8" type="curve"/>
      <point x="300" y="105"/>
      <point x="186" y="149"/>
      <point x="73" y="102" type="curve"/>
      <point x="88" y="103" type="line"/>
      <point x="150" y="169"/>
      <point x="237" y="251"/>
      <point x="312" y="314" type="curve"/>
      <point x="311" y="376" type="line"/>
      <point x="218" y="367"/>
      <point x="120" y="364"/>
      <point x="33" y="360" type="curve"/>
      <point x="37" y="282" type="line"/>
      <point x="104" y="294"/>
      <point x="181" y="292"/>
      <point x="248" y="293" type="curve"/>
      <point x="160" y="202"/>
      <point x="117" y="170"/>
    </contour>
  </outline>
</glyph>
<glyph name="q_etfin" format="1">
  <advance width="668"/>
  <unicode hex="E8BF"/>
  <outline>
    <contour>
      <point x="414" y="289" type="curve"/>
      <point x="423" y="264" type="line"/>
      <point x="451" y="282"/>
      <point x="479" y="295"/>
      <point x="505" y="305" type="curve"/>
      <point x="526" y="296"/>
      <point x="556" y="277"/>
      <point x="569" y="252" type="curve"/>
      <point x="537" y="210"/>
      <point x="483" y="174"/>
      <point x="408" y="158" type="curve"/>
      <point x="401" y="114" type="line"/>
      <point x="427" y="133"/>
      <point x="463" y="147"/>
      <point x="489" y="147" type="curve"/>
      <point x="515" y="147"/>
      <point x="568" y="138"/>
      <point x="568" y="102" type="curve"/>
      <point x="568" y="41"/>
      <point x="478" y="-16"/>
      <point x="408" y="-28" type="curve"/>
      <point x="414" y="-67" type="line"/>
      <point x="490" y="-26"/>
      <point x="652" y="41"/>
      <point x="652" y="120" type="curve"/>
      <point x="652" y="162"/>
      <point x="603" y="182"/>
      <point x="552" y="192" type="curve"/>
      <point x="658" y="282" type="line"/>
      <point x="657" y="296" type="line"/>
      <point x="612" y="320"/>
      <point x="569" y="357"/>
      <point x="545" y="381" type="curve"/>
      <point x="538" y="381" type="line"/>
      <point x="497" y="343"/>
      <point x="455" y="313"/>
    </contour>
    <component base="q"/>
  </outline>
</glyph>
<glyph name="c_t" format="1">
  <advance width="762"/>
  <unicode hex="EEC5"/>
  <outline>
    <contour>
      <point x="446" y="356" type="curve"/>
      <point x="555" y="370" type="line"/>
      <point x="559" y="426"/>
      <point x="559" y="450"/>
      <point x="559" y="534" type="curve"/>
      <point x="559" y="606"/>
      <point x="495" y="702"/>
      <point x="371" y="702" type="curve"/>
      <point x="268" y="702"/>
      <point x="212" y="615"/>
      <point x="212" y="541" type="curve"/>
      <point x="212" y="450"/>
      <point x="250" y="409"/>
      <point x="325" y="356" type="curve"/>
      <point x="340" y="374" type="line"/>
      <point x="294" y="409"/>
      <point x="258" y="457"/>
      <point x="258" y="521" type="curve"/>
      <point x="258" y="590"/>
      <point x="298" y="654"/>
      <point x="369" y="654" type="curve"/>
      <point x="447" y="654"/>
      <point x="498" y="581"/>
      <point x="498" y="491" type="curve"/>
      <point x="498" y="428"/>
      <point x="481" y="374"/>
    </contour>
    <contour>
      <point x="738" y="370" type="line"/>
      <point x="544" y="370" type="line"/>
      <point x="544" y="328" type="line"/>
      <point x="565" y="330"/>
      <point x="637" y="331"/>
      <point x="728" y="322" type="curve"/>
    </contour>
    <contour>
      <point x="548" y="172" type="curve"/>
      <point x="548" y="297"/>
      <point x="550" y="445"/>
      <point x="556" y="497" type="curve"/>
      <point x="529" y="517" type="line"/>
      <point x="510" y="427"/>
      <point x="477" y="364"/>
      <point x="425" y="347" type="curve"/>
      <point x="425" y="322" type="line"/>
      <point x="471" y="322" type="line"/>
      <point x="469" y="246"/>
      <point x="467" y="161"/>
      <point x="467" y="106" type="curve"/>
      <point x="467" y="26"/>
      <point x="515" y="-11"/>
      <point x="592" y="-10" type="curve"/>
      <point x="650" y="-9"/>
      <point x="701" y="30"/>
      <point x="747" y="76" type="curve"/>
      <point x="734" y="92" type="line"/>
      <point x="694" y="53"/>
      <point x="636" y="41"/>
      <point x="606" y="41" type="curve"/>
      <point x="553" y="41"/>
      <point x="548" y="85"/>
    </contour>
    <contour>
      <point x="374" y="126" type="curve"/>
      <point x="355" y="141" type="line"/>
      <point x="322" y="75"/>
      <point x="286" y="35"/>
      <point x="222" y="35" type="curve"/>
      <point x="148" y="35"/>
      <point x="93" y="93"/>
      <point x="93" y="179" type="curve"/>
      <point x="93" y="264"/>
      <point x="136" y="322"/>
      <point x="197" y="337" type="curve"/>
      <point x="232" y="331"/>
      <point x="261" y="318"/>
      <point x="279" y="307" type="curve"/>
      <point x="330" y="361" type="line"/>
      <point x="291" y="377"/>
      <point x="242" y="380"/>
      <point x="198" y="380" type="curve"/>
      <point x="174" y="380"/>
      <point x="20" y="309"/>
      <point x="20" y="164" type="curve"/>
      <point x="20" y="54"/>
      <point x="94" y="-10"/>
      <point x="203" y="-10" type="curve"/>
      <point x="281" y="-10"/>
      <point x="338" y="41"/>
    </contour>
  </outline>
</glyph>
<glyph name="f_f" format="1">
  <advance width="506"/>
  <unicode hex="FB00"/>
  <outline>
    <contour>
      <point x="535" y="360" type="line"/>
      <point x="387" y="360" type="line"/>
      <point x="382" y="469"/>
      <point x="383" y="507"/>
      <point x="383" y="557" type="curve"/>
      <point x="383" y="602"/>
      <point x="411" y="611"/>
      <point x="428" y="611" type="curve"/>
      <point x="461" y="611"/>
      <point x="478" y="585"/>
      <point x="460" y="544" type="curve"/>
      <point x="474" y="537" type="line"/>
      <point x="497" y="555"/>
      <point x="526" y="585"/>
      <point x="526" y="621" type="curve"/>
      <point x="526" y="663"/>
      <point x="481" y="679"/>
      <point x="449" y="679" type="curve"/>
      <point x="392" y="679"/>
      <point x="310" y="605"/>
      <point x="310" y="545" type="curve"/>
      <point x="310" y="411"/>
      <point x="313" y="375"/>
      <point x="262" y="336" type="curve"/>
      <point x="262" y="315" type="line"/>
      <point x="306" y="315" type="line"/>
      <point x="306" y="95" type="line" smooth="yes"/>
      <point x="306" y="29"/>
      <point x="306" y="29"/>
      <point x="271" y="18" type="curve"/>
      <point x="271" y="-2" type="line"/>
      <point x="324" y="0"/>
      <point x="382" y="0"/>
      <point x="439" y="-2" type="curve"/>
      <point x="439" y="23" type="line"/>
      <point x="386" y="32"/>
      <point x="385" y="37"/>
      <point x="385" y="92" type="curve"/>
      <point x="385" y="315" type="line"/>
      <point x="502" y="315" type="line"/>
      <point x="534" y="349" type="line"/>
      <point x="536" y="358" type="line"/>
    </contour>
    <contour>
      <point x="318" y="360" type="line"/>
      <point x="140" y="360" type="line"/>
      <point x="135" y="480"/>
      <point x="146" y="544"/>
      <point x="189" y="585" type="curve"/>
      <point x="234" y="585"/>
      <point x="293" y="564"/>
      <point x="327" y="544" type="curve"/>
      <point x="350" y="583" type="line"/>
      <point x="308" y="614"/>
      <point x="281" y="640"/>
      <point x="222" y="640" type="curve"/>
      <point x="186" y="640"/>
      <point x="63" y="576"/>
      <point x="63" y="476" type="curve"/>
      <point x="63" y="422"/>
      <point x="66" y="375"/>
      <point x="15" y="336" type="curve"/>
      <point x="15" y="315" type="line"/>
      <point x="59" y="315" type="line"/>
      <point x="59" y="95" type="line" smooth="yes"/>
      <point x="59" y="29"/>
      <point x="59" y="29"/>
      <point x="34" y="18" type="curve"/>
      <point x="34" y="-2" type="line"/>
      <point x="77" y="0"/>
      <point x="135" y="0"/>
      <point x="202" y="-2" type="curve"/>
      <point x="202" y="23" type="line"/>
      <point x="139" y="32"/>
      <point x="138" y="37"/>
      <point x="138" y="92" type="curve"/>
      <point x="138" y="315" type="line"/>
      <point x="285" y="315" type="line"/>
      <point x="319" y="358" type="line"/>
    </contour>
  </outline>
</glyph>
<glyph name="f_l" format="1">
  <advance width="475"/>
  <unicode hex="FB02"/>
  <outline>
    <contour>
      <point x="290" y="582" type="curve"/>
      <point x="290" y="564" type="line"/>
      <point x="338" y="534"/>
      <point x="337" y="531"/>
      <point x="337" y="363" type="curve"/>
      <point x="337" y="171" type="line" smooth="yes"/>
      <point x="337" y="36"/>
      <point x="337" y="36"/>
      <point x="301" y="19" type="curve"/>
      <point x="301" y="-1" type="line"/>
      <point x="459" y="-2" type="line"/>
      <point x="460" y="23" type="line"/>
      <point x="416" y="26"/>
      <point x="414" y="26"/>
      <point x="414" y="169" type="curve"/>
      <point x="414" y="323" type="line" smooth="yes"/>
      <point x="414" y="554"/>
      <point x="420" y="610"/>
      <point x="426" y="671" type="curve"/>
      <point x="411" y="678" type="line"/>
      <point x="387" y="651"/>
      <point x="332" y="611"/>
    </contour>
    <contour>
      <point x="289" y="360" type="line"/>
      <point x="141" y="360" type="line"/>
      <point x="136" y="480"/>
      <point x="137" y="548"/>
      <point x="160" y="587" type="curve"/>
      <point x="205" y="587"/>
      <point x="294" y="564"/>
      <point x="328" y="544" type="curve"/>
      <point x="361" y="603" type="line"/>
      <point x="339" y="614"/>
      <point x="235" y="640"/>
      <point x="203" y="640" type="curve"/>
      <point x="187" y="640"/>
      <point x="64" y="576"/>
      <point x="64" y="476" type="curve"/>
      <point x="64" y="422"/>
      <point x="67" y="376"/>
      <point x="16" y="337" type="curve"/>
      <point x="16" y="316" type="line"/>
      <point x="60" y="316" type="line"/>
      <point x="60" y="95" type="line" smooth="yes"/>
      <point x="60" y="29"/>
      <point x="60" y="29"/>
      <point x="15" y="18" type="curve"/>
      <point x="15" y="-2" type="line"/>
      <point x="78" y="0"/>
      <point x="136" y="0"/>
      <point x="203" y="-2" type="curve"/>
      <point x="203" y="23" type="line"/>
      <point x="140" y="32"/>
      <point x="139" y="37"/>
      <point x="139" y="92" type="curve"/>
      <point x="139" y="316" type="line"/>
      <point x="256" y="316" type="line"/>
      <point x="290" y="358" type="line"/>
    </contour>
  </outline>
</glyph>
<glyph name="Q_strok" format="1">
  <advance width="1045"/>
  <outline>
    <contour>
      <point x="496" y="-35" type="curve"/>
      <point x="496" y="-57" type="line"/>
      <point x="607" y="-20"/>
      <point x="667" y="-80"/>
      <point x="610" y="-135" type="curve"/>
      <point x="645" y="-130" type="line"/>
      <point x="742" y="-22"/>
      <point x="639" y="17"/>
    </contour>
    <component base="Q"/>
  </outline>
</glyph>
<glyph name="R_rot_ring" format="1">
  <advance width="938"/>
  <outline>
    <contour>
      <point x="47" y="589" type="curve"/>
      <point x="29" y="627" type="line"/>
      <point x="87" y="667"/>
      <point x="155" y="696"/>
      <point x="241" y="696" type="curve"/>
      <point x="409" y="696"/>
      <point x="527" y="613"/>
      <point x="527" y="470" type="curve"/>
      <point x="527" y="325"/>
      <point x="373" y="166"/>
      <point x="164" y="47" type="curve"/>
      <point x="315" y="70"/>
      <point x="425" y="55"/>
      <point x="577" y="55" type="curve"/>
      <point x="677" y="55"/>
      <point x="755" y="78"/>
      <point x="825" y="126" type="curve"/>
      <point x="905" y="107" type="line"/>
      <point x="908" y="93" type="line"/>
      <point x="835" y="25"/>
      <point x="714" y="-17"/>
      <point x="585" y="-15" type="curve"/>
      <point x="481" y="-13"/>
      <point x="402" y="2"/>
      <point x="272" y="5" type="curve"/>
      <point x="196" y="7"/>
      <point x="132" y="2"/>
      <point x="64" y="-10" type="curve"/>
      <point x="20" y="16" type="line"/>
      <point x="20" y="30" type="line"/>
      <point x="195" y="107"/>
      <point x="409" y="274"/>
      <point x="409" y="453" type="curve"/>
      <point x="409" y="557"/>
      <point x="342" y="640"/>
      <point x="223" y="640" type="curve"/>
      <point x="143" y="640"/>
      <point x="93" y="615"/>
    </contour>
    <contour>
      <point x="787" y="475" type="curve"/>
      <point x="742" y="475"/>
      <point x="707" y="512"/>
      <point x="707" y="557" type="curve"/>
      <point x="707" y="602"/>
      <point x="742" y="638"/>
      <point x="787" y="638" type="curve"/>
      <point x="832" y="638"/>
      <point x="867" y="602"/>
      <point x="867" y="557" type="curve"/>
      <point x="867" y="512"/>
      <point x="832" y="475"/>
    </contour>
    <contour>
      <point x="788" y="429" type="curve"/>
      <point x="850" y="429"/>
      <point x="902" y="485"/>
      <point x="902" y="553" type="curve"/>
      <point x="902" y="620"/>
      <point x="850" y="676"/>
      <point x="788" y="676" type="curve"/>
      <point x="725" y="676"/>
      <point x="673" y="620"/>
      <point x="673" y="553" type="curve"/>
      <point x="673" y="485"/>
      <point x="725" y="429"/>
    </contour>
  </outline>
</glyph>
<glyph name="etfin_ring" format="1">
  <advance width="753"/>
  <outline>
    <contour>
      <point x="53" y="204" type="curve"/>
      <point x="86" y="178" type="line"/>
      <point x="124" y="198"/>
      <point x="142" y="218"/>
      <point x="172" y="218" type="curve"/>
      <point x="225" y="218"/>
      <point x="321" y="177"/>
      <point x="321" y="100" type="curve"/>
      <point x="321" y="27"/>
      <point x="261" y="-25"/>
      <point x="208" y="-42" type="curve"/>
      <point x="165" y="-56"/>
      <point x="116" y="-36"/>
      <point x="76" y="-25" type="curve"/>
      <point x="62" y="-50"/>
      <point x="57" y="-63"/>
      <point x="63" y="-88" type="curve"/>
      <point x="244" y="-88"/>
      <point x="417" y="-10"/>
      <point x="417" y="116" type="curve"/>
      <point x="417" y="209"/>
      <point x="289" y="250"/>
      <point x="214" y="259" type="curve"/>
      <point x="275" y="307"/>
      <point x="399" y="395"/>
      <point x="451" y="451" type="curve"/>
      <point x="451" y="499" type="line"/>
      <point x="353" y="513"/>
      <point x="237" y="550"/>
      <point x="194" y="559" type="curve"/>
      <point x="148" y="550"/>
      <point x="66" y="520"/>
      <point x="29" y="510" type="curve"/>
      <point x="37" y="484" type="line"/>
      <point x="65" y="489"/>
      <point x="103" y="495"/>
      <point x="158" y="495" type="curve"/>
      <point x="198" y="495"/>
      <point x="321" y="454"/>
      <point x="371" y="435" type="curve"/>
      <point x="286" y="349"/>
      <point x="190" y="268"/>
    </contour>
    <contour>
      <point x="648" y="314" type="curve"/>
      <point x="611" y="314"/>
      <point x="582" y="344"/>
      <point x="582" y="382" type="curve"/>
      <point x="582" y="419"/>
      <point x="611" y="449"/>
      <point x="648" y="449" type="curve"/>
      <point x="685" y="449"/>
      <point x="714" y="419"/>
      <point x="714" y="382" type="curve"/>
      <point x="714" y="344"/>
      <point x="685" y="314"/>
    </contour>
    <contour>
      <point x="649" y="276" type="curve"/>
      <point x="700" y="276"/>
      <point x="743" y="322"/>
      <point x="743" y="378" type="curve"/>
      <point x="743" y="434"/>
      <point x="700" y="480"/>
      <point x="649" y="480" type="curve"/>
      <point x="597" y="480"/>
      <point x="554" y="434"/>
      <point x="554" y="378" type="curve"/>
      <point x="554" y="322"/>
      <point x="597" y="276"/>
    </contour>
  </outline>
</glyph>
<glyph name="macr" format="1">
  <advance width="600"/>
  <outline>
    <contour>
      <point x="116" y="593" type="curve"/>
      <point x="96" y="617" type="line"/>
      <point x="190" y="690" type="line"/>
      <point x="225" y="677"/>
      <point x="279" y="657"/>
      <point x="295" y="657" type="curve"/>
      <point x="303" y="657"/>
      <point x="317" y="665"/>
      <point x="328" y="672" type="curve"/>
      <point x="352" y="653" type="line"/>
      <point x="264" y="582" type="line"/>
      <point x="229" y="594"/>
      <point x="177" y="612"/>
      <point x="158" y="612" type="curve"/>
      <point x="144" y="612"/>
      <point x="130" y="602"/>
    </contour>
  </outline>
</glyph>
<glyph name="q_acute" format="1">
  <advance width="494"/>
  <outline>
    <contour>
      <point x="114" y="600" type="curve"/>
      <point x="114" y="609" type="line"/>
      <point x="160" y="613" type="line"/>
      <point x="231" y="575"/>
      <point x="268" y="572"/>
      <point x="337" y="578" type="curve"/>
      <point x="388" y="536" type="line"/>
      <point x="384" y="526" type="line"/>
      <point x="344" y="527"/>
      <point x="304" y="523"/>
      <point x="262" y="521" type="curve"/>
      <point x="229" y="531"/>
      <point x="175" y="565"/>
    </contour>
    <component base="q"/>
  </outline>
</glyph>
<glyph name="r.ss01" format="1">
  <advance width="376"/>
  <outline>
    <contour>
      <point x="28" y="0" type="curve"/>
      <point x="25" y="24" type="line"/>
      <point x="84" y="70"/>
      <point x="174" y="149"/>
      <point x="174" y="219" type="curve"/>
      <point x="174" y="305"/>
      <point x="96" y="329"/>
      <point x="30" y="341" type="curve"/>
      <point x="30" y="367" type="line"/>
      <point x="134" y="378"/>
      <point x="259" y="358"/>
      <point x="259" y="251" type="curve"/>
      <point x="259" y="183"/>
      <point x="166" y="113"/>
      <point x="109" y="57" type="curve"/>
      <point x="183" y="56"/>
      <point x="269" y="60"/>
      <point x="353" y="73" type="curve"/>
      <point x="355" y="66" type="line"/>
      <point x="326" y="-12" type="line"/>
      <point x="227" y="-3"/>
      <point x="127" y="1"/>
    </contour>
  </outline>
</glyph>
<glyph name="t_macr" format="1">
  <advance width="367"/>
  <outline>
    <contour>
      <point x="116" y="593" type="curve"/>
      <point x="96" y="617" type="line"/>
      <point x="190" y="690" type="line"/>
      <point x="225" y="677"/>
      <point x="279" y="657"/>
      <point x="295" y="657" type="curve"/>
      <point x="303" y="657"/>
      <point x="317" y="665"/>
      <point x="328" y="672" type="curve"/>
      <point x="352" y="653" type="line"/>
      <point x="264" y="582" type="line"/>
      <point x="229" y="594"/>
      <point x="177" y="612"/>
      <point x="158" y="612" type="curve"/>
      <point x="144" y="612"/>
      <point x="130" y="602"/>
    </contour>
    <component base="t"/>
  </outline>
</glyph>
